# MeshWarpEditor Object File:
# maybites.ch
v -0.73217267 2.0128517 2.0628698
v -0.73217267 2.0128517 0.6702499
v 0.6678275 2.0128517 0.6702499
v -0.73217267 2.0128517 0.6702499
v 0.6678275 2.0128517 0.6702499
v -0.73217267 1.9890151 0.5666534
v 0.6678275 1.9890151 0.5666534
v -0.73217267 1.9890151 0.5666534
v 0.6678275 1.9890151 0.5666534
v -0.73217267 1.9508443 0.47296008
v 0.6678275 1.9508443 0.47296008
v -0.73217267 1.9508443 0.47296008
v 0.6678275 1.9508443 0.47296008
v -0.73217267 1.8336244 0.3106073
v 0.6678275 1.8336244 0.3106073
v -0.73217267 1.8336244 0.3106073
v 0.6678275 1.8336244 0.3106073
v -0.73217267 1.7551045 0.24090664
v 0.6678275 1.7551045 0.24090664
v -0.73217267 1.7551045 0.24090664
v 0.6678275 1.7551045 0.24090664
v -0.73217267 1.6639028 0.179123
v 0.6678275 1.6639028 0.179123
v -0.73217267 1.6639028 0.179123
v 0.6678275 1.6639028 0.179123
v -0.73217267 1.5608563 0.1257346
v 0.6678275 1.5608563 0.1257346
v -0.73217267 1.5608563 0.1257346
v 0.6678275 1.5608563 0.1257346
v -0.73217267 1.4471111 0.081232615
v 0.6678275 1.4471111 0.081232615
v -0.73217267 1.4471111 0.081232615
v 0.6678275 1.4471111 0.081232615
v -0.73217267 1.3240008 0.04612277
v 0.6678275 1.3240008 0.04612277
v -0.73217267 1.3240008 0.04612277
v 0.6678275 1.3240008 0.04612277
v -0.73217267 1.1926436 0.022260956
v 0.66782725 1.1926436 0.022260956
v -0.73217267 1.1926436 0.022260956
v 0.66782725 1.1926436 0.022260956
v -0.73217267 1.0552835 0.005437245
v 0.6678275 1.0552835 0.005437245
v -0.73217267 1.0552835 0.005437245
v 0.6678275 1.0552835 0.005437245
v -0.73217267 0.9102402 1.6533246E-4
v 0.6678275 0.9102402 1.6533246E-4
v -0.73217267 0.9102402 1.6533246E-4
v 0.6678275 0.9102402 1.6533246E-4
v -0.73217267 0.0 0.0
v 0.6678275 0.0 0.0
v 0.6678275 2.0128517 0.6702499
v -0.73217267 2.0128517 2.0628698
v 0.6678275 2.0128517 2.0628698
v -0.73217267 2.0128517 2.0628698
v 0.6678275 2.0128517 2.0628698
v -0.73217267 1.9890151 2.1664665
v 0.6678275 1.9890151 2.1664665
v -0.73217267 1.9890151 2.1664665
v 0.6678275 1.9890151 2.1664665
v -0.73217267 1.9508443 2.2601597
v 0.6678275 1.9508443 2.2601597
v -0.73217267 1.9508443 2.2601597
v 0.6678275 1.9508443 2.2601597
v -0.73217267 1.8336244 2.4225125
v 0.6678275 1.8336244 2.4225125
v -0.73217267 1.8336244 2.4225125
v 0.6678275 1.8336244 2.4225125
v -0.73217267 1.7551045 2.4922132
v 0.6678275 1.7551045 2.4922132
v -0.73217267 1.7551045 2.4922132
v 0.6678275 1.7551045 2.4922132
v -0.73217267 1.6639028 2.5539968
v 0.6678275 1.6639028 2.5539968
v -0.73217267 1.6639028 2.5539968
v 0.6678275 1.6639028 2.5539968
v -0.73217267 1.5608563 2.6073852
v 0.6678275 1.5608563 2.6073852
v -0.73217267 1.5608563 2.6073852
v 0.6678275 1.5608563 2.6073852
v -0.73217267 1.4471111 2.6518872
v 0.6678275 1.4471111 2.6518872
v -0.73217267 1.4471111 2.6518872
v 0.6678275 1.4471111 2.6518872
v -0.73217267 1.3240008 2.686997
v 0.6678275 1.3240008 2.686997
v -0.73217267 1.3240008 2.686997
v 0.6678275 1.3240008 2.686997
v -0.73217267 1.1926436 2.7108588
v 0.66782725 1.1926436 2.7108588
v -0.73217267 1.1926436 2.7108588
v 0.66782725 1.1926436 2.7108588
v -0.73217267 1.0552835 2.7276826
v 0.6678275 1.0552835 2.7276826
v -0.73217267 1.0552835 2.7276826
v 0.6678275 1.0552835 2.7276826
v -0.73217267 0.9102402 2.7329545
v 0.6678275 0.9102402 2.7329545
v -0.73217267 0.9102402 2.7329545
v 0.6678275 0.9102402 2.7329545
v -0.73217267 0.0 2.7331197
v 0.6678275 0.0 2.7331197
vt 0.38588923 0.38044113
vt 0.61895424 0.3852589
vt 0.6141109 0.6195591
vt 0.61895424 0.3852589
vt 0.6141109 0.6195591
vt 0.63674486 0.3856267
vt 0.6319015 0.6199269
vt 0.63674486 0.3856267
vt 0.6319015 0.6199269
vt 0.6536765 0.38597673
vt 0.64883316 0.62027687
vt 0.6536765 0.38597673
vt 0.64883316 0.62027687
vt 0.6871892 0.38666952
vt 0.682346 0.62096965
vt 0.6871892 0.38666952
vt 0.682346 0.62096965
vt 0.7047607 0.38703275
vt 0.6999173 0.6213328
vt 0.7047607 0.38703275
vt 0.6999173 0.6213328
vt 0.7231965 0.3874138
vt 0.7183533 0.621714
vt 0.7231965 0.3874138
vt 0.7183533 0.621714
vt 0.7426193 0.38781527
vt 0.737776 0.6221155
vt 0.7426193 0.38781527
vt 0.737776 0.6221155
vt 0.76306045 0.38823783
vt 0.75821704 0.622538
vt 0.76306045 0.38823783
vt 0.75821704 0.622538
vt 0.78448534 0.3886807
vt 0.779642 0.62298095
vt 0.78448534 0.3886807
vt 0.779642 0.62298095
vt 0.80682874 0.3891426
vt 0.80198526 0.62344277
vt 0.80682874 0.3891426
vt 0.80198526 0.62344277
vt 0.82998866 0.38962132
vt 0.82514536 0.6239216
vt 0.82998866 0.38962132
vt 0.82514536 0.6239216
vt 0.85427874 0.39012352
vt 0.84943545 0.6244236
vt 0.85427874 0.39012352
vt 0.84943545 0.6244236
vt 1.0066141 0.3932725
vt 1.0017707 0.6275726
vt 0.6141109 0.6195591
vt 0.38588923 0.38044113
vt 0.38104585 0.6147413
vt 0.38588923 0.38044113
vt 0.38104585 0.6147413
vt 0.3680985 0.38007337
vt 0.3632552 0.61437356
vt 0.3680985 0.38007337
vt 0.3632552 0.61437356
vt 0.35116684 0.37972334
vt 0.3463236 0.6140236
vt 0.35116684 0.37972334
vt 0.3463236 0.6140236
vt 0.31765407 0.37903064
vt 0.31281075 0.6133308
vt 0.31765407 0.37903064
vt 0.31281075 0.6133308
vt 0.30008268 0.3786674
vt 0.2952394 0.6129676
vt 0.30008268 0.3786674
vt 0.2952394 0.6129676
vt 0.28164685 0.37828627
vt 0.2768035 0.61258656
vt 0.28164685 0.37828627
vt 0.2768035 0.61258656
vt 0.26222414 0.37788484
vt 0.2573808 0.612185
vt 0.26222414 0.37788484
vt 0.2573808 0.612185
vt 0.24178293 0.37746227
vt 0.23693961 0.6117624
vt 0.24178293 0.37746227
vt 0.23693961 0.6117624
vt 0.22035804 0.3770194
vt 0.21551472 0.6113196
vt 0.22035804 0.3770194
vt 0.21551472 0.6113196
vt 0.1980147 0.3765575
vt 0.19317135 0.6108576
vt 0.1980147 0.3765575
vt 0.19317135 0.6108576
vt 0.17485467 0.37607872
vt 0.1700114 0.61037886
vt 0.17485467 0.37607872
vt 0.1700114 0.61037886
vt 0.15056461 0.37557665
vt 0.14572129 0.60987675
vt 0.15056461 0.37557665
vt 0.14572129 0.60987675
vt -0.0017707348 0.37242764
vt -0.006614089 0.60672784
vn 0.0 1.0 3.5527137E-15
vn 0.0 1.0 -3.5527137E-15
vn 0.0 1.0 -3.5527137E-15
vn 0.0 0.9745358 -0.22423181
vn 0.0 0.9745358 -0.22423181
vn 0.0 0.9745358 -0.22423181
vn 0.0 0.9745358 -0.22423181
vn 0.0 0.92609423 -0.37729234
vn 0.0 0.92609423 -0.37729234
vn 0.0 0.92609423 -0.37729234
vn 0.0 0.92609423 -0.37729234
vn 0.0 0.8107618 -0.58537614
vn 0.0 0.8107618 -0.58537614
vn 0.0 0.8107618 -0.58537614
vn 0.0 0.8107618 -0.58537614
vn 0.0 0.6638597 -0.74785715
vn 0.0 0.6638597 -0.74785715
vn 0.0 0.6638597 -0.74785715
vn 0.0 0.6638597 -0.74785715
vn 0.0 0.56085926 -0.82791114
vn 0.0 0.56085926 -0.82791114
vn 0.0 0.56085926 -0.82791114
vn 0.0 0.56085926 -0.82791114
vn 0.0 0.4600246 -0.8879062
vn 0.0 0.4600246 -0.8879062
vn 0.0 0.4600246 -0.8879062
vn 0.0 0.4600246 -0.8879062
vn 0.0 0.36434954 -0.93126225
vn 0.0 0.36434954 -0.93126225
vn 0.0 0.36434954 -0.93126225
vn 0.0 0.36434954 -0.93126225
vn 0.0 0.2742551 -0.961657
vn 0.0 0.2742551 -0.961657
vn 0.0 0.2742551 -0.961657
vn 0.0 0.2742551 -0.961657
vn 0.0 0.17873092 -0.983898
vn 0.0 0.17873092 -0.983898
vn 0.0 0.17873092 -0.983898
vn 0.0 0.17873092 -0.983898
vn 0.0 0.12157044 -0.9925828
vn 0.0 0.12157044 -0.9925828
vn 0.0 0.12157044 -0.9925828
vn 0.0 0.12157044 -0.9925828
vn 0.0 0.03632316 -0.9993401
vn 0.0 0.03632316 -0.9993401
vn 0.0 0.03632316 -0.9993401
vn 0.0 0.03632316 -0.9993401
vn 0.0 1.8163607E-4 -1.0
vn 0.0 1.8163607E-4 -1.0
vn 0.0 1.8163607E-4 -1.0
vn 0.0 1.8163607E-4 -1.0
vn 0.0 1.0 -3.5527137E-15
vn 0.0 1.0 3.5527137E-15
vn 0.0 1.0 3.5527137E-15
vn 0.0 0.9745358 0.22423181
vn 0.0 0.9745358 0.22423181
vn 0.0 0.9745358 0.22423181
vn 0.0 0.9745358 0.22423181
vn 0.0 0.92609423 0.37729234
vn 0.0 0.92609423 0.37729234
vn 0.0 0.92609423 0.37729234
vn 0.0 0.92609423 0.37729234
vn 0.0 0.8107618 0.58537614
vn 0.0 0.8107618 0.58537614
vn 0.0 0.8107618 0.58537614
vn 0.0 0.8107618 0.58537614
vn 0.0 0.6638597 0.74785715
vn 0.0 0.6638597 0.74785715
vn 0.0 0.6638597 0.74785715
vn 0.0 0.6638597 0.74785715
vn 0.0 0.56085926 0.82791114
vn 0.0 0.56085926 0.82791114
vn 0.0 0.56085926 0.82791114
vn 0.0 0.56085926 0.82791114
vn 0.0 0.4600246 0.8879062
vn 0.0 0.4600246 0.8879062
vn 0.0 0.4600246 0.8879062
vn 0.0 0.4600246 0.8879062
vn 0.0 0.36434954 0.93126225
vn 0.0 0.36434954 0.93126225
vn 0.0 0.36434954 0.93126225
vn 0.0 0.36434954 0.93126225
vn 0.0 0.2742551 0.961657
vn 0.0 0.2742551 0.961657
vn 0.0 0.2742551 0.961657
vn 0.0 0.2742551 0.961657
vn 0.0 0.17873092 0.983898
vn 0.0 0.17873092 0.983898
vn 0.0 0.17873092 0.983898
vn 0.0 0.17873092 0.983898
vn 0.0 0.12157044 0.9925828
vn 0.0 0.12157044 0.9925828
vn 0.0 0.12157044 0.9925828
vn 0.0 0.12157044 0.9925828
vn 0.0 0.03632316 0.9993401
vn 0.0 0.03632316 0.9993401
vn 0.0 0.03632316 0.9993401
vn 0.0 0.03632316 0.9993401
vn 0.0 1.8163607E-4 1.0
vn 0.0 1.8163607E-4 1.0
vn 0.0 1.8163607E-4 1.0
vn 0.0 1.8163607E-4 1.0
f 1/1/1 3/3/3 2/2/2
f 5/5/5 7/7/7 6/6/6 4/4/4
f 9/9/9 11/11/11 10/10/10 8/8/8
f 13/13/13 15/15/15 14/14/14 12/12/12
f 17/17/17 19/19/19 18/18/18 16/16/16
f 21/21/21 23/23/23 22/22/22 20/20/20
f 25/25/25 27/27/27 26/26/26 24/24/24
f 29/29/29 31/31/31 30/30/30 28/28/28
f 33/33/33 35/35/35 34/34/34 32/32/32
f 37/37/37 39/39/39 38/38/38 36/36/36
f 41/41/41 43/43/43 42/42/42 40/40/40
f 45/45/45 47/47/47 46/46/46 44/44/44
f 49/49/49 51/51/51 50/50/50 48/48/48
f 52/52/52 53/53/53 54/54/54
f 56/56/56 55/55/55 57/57/57 58/58/58
f 60/60/60 59/59/59 61/61/61 62/62/62
f 64/64/64 63/63/63 65/65/65 66/66/66
f 68/68/68 67/67/67 69/69/69 70/70/70
f 72/72/72 71/71/71 73/73/73 74/74/74
f 76/76/76 75/75/75 77/77/77 78/78/78
f 80/80/80 79/79/79 81/81/81 82/82/82
f 84/84/84 83/83/83 85/85/85 86/86/86
f 88/88/88 87/87/87 89/89/89 90/90/90
f 92/92/92 91/91/91 93/93/93 94/94/94
f 96/96/96 95/95/95 97/97/97 98/98/98
f 100/100/100 99/99/99 101/101/101 102/102/102
