# Rhino

mtllib mesh1A_001.mtl
g Layer_01
o object_1
usemtl loafershoes
v -0.73217266999999997 2.0628698000000001 -2.0128517000000001
v -0.73217266999999997 0.67024989999999995 -2.0128517000000001
v 0.66782750000000002 0.67024989999999995 -2.0128517000000001
v -0.73217266999999997 0.67024989999999995 -2.0128517000000001
v 0.66782750000000002 0.67024989999999995 -2.0128517000000001
v -0.73217266999999997 0.56665339999999997 -1.9890151
v 0.66782750000000002 0.56665339999999997 -1.9890151
v -0.73217266999999997 0.56665339999999997 -1.9890151
v 0.66782750000000002 0.56665339999999997 -1.9890151
v -0.73217266999999997 0.47296008 -1.9508443
v 0.66782750000000002 0.47296008 -1.9508443
v -0.73217266999999997 0.47296008 -1.9508443
v 0.66782750000000002 0.47296008 -1.9508443
v -0.73217266999999997 0.31060729999999998 -1.8336243999999999
v 0.66782750000000002 0.31060729999999998 -1.8336243999999999
v -0.73217266999999997 0.31060729999999998 -1.8336243999999999
v 0.66782750000000002 0.31060729999999998 -1.8336243999999999
v -0.73217266999999997 0.24090664000000001 -1.7551045000000001
v 0.66782750000000002 0.24090664000000001 -1.7551045000000001
v -0.73217266999999997 0.24090664000000001 -1.7551045000000001
v 0.66782750000000002 0.24090664000000001 -1.7551045000000001
v -0.73217266999999997 0.179123 -1.6639028
v 0.66782750000000002 0.179123 -1.6639028
v -0.73217266999999997 0.179123 -1.6639028
v 0.66782750000000002 0.179123 -1.6639028
v -0.73217266999999997 0.1257346 -1.5608563
v 0.66782750000000002 0.1257346 -1.5608563
v -0.73217266999999997 0.1257346 -1.5608563
v 0.66782750000000002 0.1257346 -1.5608563
v -0.73217266999999997 0.081232614999999994 -1.4471111000000001
v 0.66782750000000002 0.081232614999999994 -1.4471111000000001
v -0.73217266999999997 0.081232614999999994 -1.4471111000000001
v 0.66782750000000002 0.081232614999999994 -1.4471111000000001
v -0.73217266999999997 0.04612277 -1.3240008000000001
v 0.66782750000000002 0.04612277 -1.3240008000000001
v -0.73217266999999997 0.04612277 -1.3240008000000001
v 0.66782750000000002 0.04612277 -1.3240008000000001
v -0.73217266999999997 0.022260955999999998 -1.1926436
v 0.66782724999999998 0.022260955999999998 -1.1926436
v -0.73217266999999997 0.022260955999999998 -1.1926436
v 0.66782724999999998 0.022260955999999998 -1.1926436
v -0.73217266999999997 0.0054372450000000003 -1.0552835
v 0.66782750000000002 0.0054372450000000003 -1.0552835
v -0.73217266999999997 0.0054372450000000003 -1.0552835
v 0.66782750000000002 0.0054372450000000003 -1.0552835
v -0.73217266999999997 0.00016533246 -0.91024020000000005
v 0.66782750000000002 0.00016533246 -0.91024020000000005
v -0.73217266999999997 0.00016533246 -0.91024020000000005
v 0.66782750000000002 0.00016533246 -0.91024020000000005
v -0.73217266999999997 0 0
v 0.66782750000000002 0 0
v 0.66782750000000002 0.67024989999999995 -2.0128517000000001
v -0.73217266999999997 2.0628698000000001 -2.0128517000000001
v 0.66782750000000002 2.0628698000000001 -2.0128517000000001
v -0.73217266999999997 2.0628698000000001 -2.0128517000000001
v 0.66782750000000002 2.0628698000000001 -2.0128517000000001
v -0.73217266999999997 2.1664664999999999 -1.9890151
v 0.66782750000000002 2.1664664999999999 -1.9890151
v -0.73217266999999997 2.1664664999999999 -1.9890151
v 0.66782750000000002 2.1664664999999999 -1.9890151
v -0.73217266999999997 2.2601597 -1.9508443
v 0.66782750000000002 2.2601597 -1.9508443
v -0.73217266999999997 2.2601597 -1.9508443
v 0.66782750000000002 2.2601597 -1.9508443
v -0.73217266999999997 2.4225124999999998 -1.8336243999999999
v 0.66782750000000002 2.4225124999999998 -1.8336243999999999
v -0.73217266999999997 2.4225124999999998 -1.8336243999999999
v 0.66782750000000002 2.4225124999999998 -1.8336243999999999
v -0.73217266999999997 2.4922132000000001 -1.7551045000000001
v 0.66782750000000002 2.4922132000000001 -1.7551045000000001
v -0.73217266999999997 2.4922132000000001 -1.7551045000000001
v 0.66782750000000002 2.4922132000000001 -1.7551045000000001
v -0.73217266999999997 2.5539968000000002 -1.6639028
v 0.66782750000000002 2.5539968000000002 -1.6639028
v -0.73217266999999997 2.5539968000000002 -1.6639028
v 0.66782750000000002 2.5539968000000002 -1.6639028
v -0.73217266999999997 2.6073852 -1.5608563
v 0.66782750000000002 2.6073852 -1.5608563
v -0.73217266999999997 2.6073852 -1.5608563
v 0.66782750000000002 2.6073852 -1.5608563
v -0.73217266999999997 2.6518872 -1.4471111000000001
v 0.66782750000000002 2.6518872 -1.4471111000000001
v -0.73217266999999997 2.6518872 -1.4471111000000001
v 0.66782750000000002 2.6518872 -1.4471111000000001
v -0.73217266999999997 2.6869969999999999 -1.3240008000000001
v 0.66782750000000002 2.6869969999999999 -1.3240008000000001
v -0.73217266999999997 2.6869969999999999 -1.3240008000000001
v 0.66782750000000002 2.6869969999999999 -1.3240008000000001
v -0.73217266999999997 2.7108588 -1.1926436
v 0.66782724999999998 2.7108588 -1.1926436
v -0.73217266999999997 2.7108588 -1.1926436
v 0.66782724999999998 2.7108588 -1.1926436
v -0.73217266999999997 2.7276826000000001 -1.0552835
v 0.66782750000000002 2.7276826000000001 -1.0552835
v -0.73217266999999997 2.7276826000000001 -1.0552835
v 0.66782750000000002 2.7276826000000001 -1.0552835
v -0.73217266999999997 2.7329545 -0.91024020000000005
v 0.66782750000000002 2.7329545 -0.91024020000000005
v -0.73217266999999997 2.7329545 -0.91024020000000005
v 0.66782750000000002 2.7329545 -0.91024020000000005
v -0.73217266999999997 2.7331197 0
v 0.66782750000000002 2.7331197 0
vt 0.38516297936439514 0.39327260851860046
vt 0.62124598026275635 0.39327189326286316
vt 0.61827778816223145 0.62762284278869629
vt 0.61868965625762939 0.39327237010002136
vt 0.61857640743255615 0.62762266397476196
vt 0.63688260316848755 0.3932725191116333
vt 0.63682526350021362 0.62762278318405151
vt 0.63650453090667725 0.39327248930931091
vt 0.63644993305206299 0.62762278318405151
vt 0.65390843152999878 0.39327254891395569
vt 0.65378856658935547 0.62762272357940674
vt 0.65315580368041992 0.39327248930931091
vt 0.65291863679885864 0.62762266397476196
vt 0.68775284290313721 0.39327263832092285
vt 0.68755197525024414 0.62762278318405151
vt 0.68696451187133789 0.39327257871627808
vt 0.68685925006866455 0.62762278318405151
vt 0.70486283302307129 0.39327245950698853
vt 0.70482540130615234 0.62762260437011719
vt 0.7046237587928772 0.39327245950698853
vt 0.70458447933197021 0.62762260437011719
vt 0.72323709726333618 0.3932725191116333
vt 0.72320550680160522 0.62762278318405151
vt 0.72307437658309937 0.39327248930931091
vt 0.7230411171913147 0.62762272357940674
vt 0.74264860153198242 0.39327248930931091
vt 0.74262183904647827 0.62762278318405151
vt 0.74251055717468262 0.3932725191116333
vt 0.74248248338699341 0.62762284278869629
vt 0.76308172941207886 0.39327242970466614
vt 0.76305860280990601 0.62762260437011719
vt 0.76295870542526245 0.39327242970466614
vt 0.76293438673019409 0.62762254476547241
vt 0.78451400995254517 0.39327254891395569
vt 0.7844882607460022 0.62762284278869629
vt 0.78439819812774658 0.3932725191116333
vt 0.78437131643295288 0.62762284278869629
vt 0.8068280816078186 0.39327245950698853
vt 0.80681860446929932 0.62762266397476196
vt 0.80675750970840454 0.39327248930931091
vt 0.8067476749420166 0.62762272357940674
vt 0.83000528812408447 0.39327248930931091
vt 0.82998418807983398 0.62762278318405151
vt 0.82992112636566162 0.3932725191116333
vt 0.82989901304244995 0.62762284278869629
vt 0.85427266359329224 0.39327242970466614
vt 0.85426872968673706 0.62762260437011719
vt 0.85421627759933472 0.39327225089073181
vt 0.85423129796981812 0.62762254476547241
vt 1.0066241025924683 0.39327257871627808
vt 1.006614089012146 0.62762266397476196
vt 0.61946499347686768 0.62762272357940674
vt 0.3863501250743866 0.39327248930931091
vt 0.38338252902030945 0.62762278318405151
vt 0.38593840599060059 0.39327248930931091
vt 0.38605168461799622 0.62762278318405151
vt 0.36774533987045288 0.39327245950698853
vt 0.36780276894569397 0.62762272357940674
vt 0.36812344193458557 0.39327245950698853
vt 0.3681780993938446 0.62762266397476196
vt 0.35071948170661926 0.39327254891395569
vt 0.35083946585655212 0.62762290239334106
vt 0.3514721691608429 0.39327257871627808
vt 0.35170945525169373 0.62762302160263062
vt 0.31687480211257935 0.39327234029769897
vt 0.31707596778869629 0.62762260437011719
vt 0.31766322255134583 0.39327242970466614
vt 0.31776872277259827 0.62762260437011719
vt 0.29976525902748108 0.39327263832092285
vt 0.29980260133743286 0.62762284278869629
vt 0.30000424385070801 0.39327260851860046
vt 0.30004346370697021 0.62762284278869629
vt 0.28139075636863708 0.39327242970466614
vt 0.28142255544662476 0.62762272357940674
vt 0.28155350685119629 0.39327245950698853
vt 0.28158700466156006 0.62762278318405151
vt 0.26197931170463562 0.39327257871627808
vt 0.26200622320175171 0.62762278318405151
vt 0.26211735606193542 0.39327257871627808
vt 0.26214563846588135 0.62762284278869629
vt 0.24154625833034515 0.39327248930931091
vt 0.24156932532787323 0.62762266397476196
vt 0.24166929721832275 0.39327245950698853
vt 0.24169351160526276 0.62762260437011719
vt 0.22011400759220123 0.39327278733253479
vt 0.22013987600803375 0.62762296199798584
vt 0.22022978961467743 0.39327272772789001
vt 0.22025677561759949 0.62762296199798584
vt 0.19780001044273376 0.39327245950698853
vt 0.19780923426151276 0.62762266397476196
vt 0.19787058234214783 0.3932725191116333
vt 0.19788013398647308 0.62762266397476196
vt 0.17462265491485596 0.39327254891395569
vt 0.17464400827884674 0.62762272357940674
vt 0.17470681667327881 0.39327254891395569
vt 0.17472922801971436 0.62762272357940674
vt 0.15035520493984222 0.39327254891395569
vt 0.15035915374755859 0.62762272357940674
vt 0.15041141211986542 0.39327254891395569
vt 0.15039657056331635 0.62762272357940674
vt -0.0019961090292781591 0.39327254891395569
vt -0.0019861382897943258 0.62762278318405151
vn 0 0 1
vn 0 0 1
vn 0 0 1
vn 0 0.22423171997070313 0.97453588247299194
vn 0 0.22423171997070313 0.97453588247299194
vn 0 0.22423171997070313 0.97453588247299194
vn 0 0.22423171997070313 0.97453588247299194
vn 0 0.3772922158241272 0.92609429359436035
vn 0 0.3772922158241272 0.92609429359436035
vn 0 0.3772922158241272 0.92609429359436035
vn 0 0.3772922158241272 0.92609429359436035
vn 0 0.5853760838508606 0.81076192855834961
vn 0 0.5853760838508606 0.81076192855834961
vn 0 0.5853760838508606 0.81076192855834961
vn 0 0.5853760838508606 0.81076192855834961
vn 0 0.74785751104354858 0.66385924816131592
vn 0 0.74785751104354858 0.66385924816131592
vn 0 0.74785751104354858 0.66385924816131592
vn 0 0.74785751104354858 0.66385924816131592
vn 0 0.8279109001159668 0.56085962057113647
vn 0 0.8279109001159668 0.56085962057113647
vn 0 0.8279109001159668 0.56085962057113647
vn 0 0.8279109001159668 0.56085962057113647
vn 0 0.88790631294250488 0.46002432703971863
vn 0 0.88790631294250488 0.46002432703971863
vn 0 0.88790631294250488 0.46002432703971863
vn 0 0.88790631294250488 0.46002432703971863
vn 0 0.93126225471496582 0.3643496036529541
vn 0 0.93126225471496582 0.3643496036529541
vn 0 0.93126225471496582 0.3643496036529541
vn 0 0.93126225471496582 0.3643496036529541
vn 0 0.96165698766708374 0.27425509691238403
vn 0 0.96165698766708374 0.27425509691238403
vn 0 0.96165698766708374 0.27425509691238403
vn 0 0.96165698766708374 0.27425509691238403
vn 0 0.98389798402786255 0.17873090505599976
vn 0 0.98389798402786255 0.17873090505599976
vn 0 0.98389798402786255 0.17873090505599976
vn 0 0.98389798402786255 0.17873090505599976
vn 0 0.99258279800415039 0.12157043069601059
vn 0 0.99258279800415039 0.12157043069601059
vn 0 0.99258279800415039 0.12157043069601059
vn 0 0.99258279800415039 0.12157043069601059
vn 0 0.99934011697769165 0.036323178559541702
vn 0 0.99934011697769165 0.036323178559541702
vn 0 0.99934011697769165 0.036323178559541702
vn 0 0.99934011697769165 0.036323178559541702
vn 0 1 0.00018163607455790043
vn 0 1 0.00018163607455790043
vn 0 1 0.00018163607455790043
vn 0 1 0.00018163607455790043
vn 0 0 1
vn 0 0 1
vn 0 0 1
vn 0 -0.2242313027381897 0.97453594207763672
vn 0 -0.2242313027381897 0.97453594207763672
vn 0 -0.2242313027381897 0.97453594207763672
vn 0 -0.2242313027381897 0.97453594207763672
vn 0 -0.37729260325431824 0.92609411478042603
vn 0 -0.37729260325431824 0.92609411478042603
vn 0 -0.37729260325431824 0.92609411478042603
vn 0 -0.37729260325431824 0.92609411478042603
vn 0 -0.58537602424621582 0.81076192855834961
vn 0 -0.58537602424621582 0.81076192855834961
vn 0 -0.58537602424621582 0.81076192855834961
vn 0 -0.58537602424621582 0.81076192855834961
vn 0 -0.74785733222961426 0.66385948657989502
vn 0 -0.74785733222961426 0.66385948657989502
vn 0 -0.74785733222961426 0.66385948657989502
vn 0 -0.74785733222961426 0.66385948657989502
vn 0 -0.82791107892990112 0.56085938215255737
vn 0 -0.82791107892990112 0.56085938215255737
vn 0 -0.82791107892990112 0.56085938215255737
vn 0 -0.82791107892990112 0.56085938215255737
vn 0 -0.88790631294250488 0.46002432703971863
vn 0 -0.88790631294250488 0.46002432703971863
vn 0 -0.88790631294250488 0.46002432703971863
vn 0 -0.88790631294250488 0.46002432703971863
vn 0 -0.93126219511032104 0.36434972286224365
vn 0 -0.93126219511032104 0.36434972286224365
vn 0 -0.93126219511032104 0.36434972286224365
vn 0 -0.93126219511032104 0.36434972286224365
vn 0 -0.96165704727172852 0.27425476908683777
vn 0 -0.96165704727172852 0.27425476908683777
vn 0 -0.96165704727172852 0.27425476908683777
vn 0 -0.96165704727172852 0.27425476908683777
vn 0 -0.98389798402786255 0.1787308007478714
vn 0 -0.98389798402786255 0.1787308007478714
vn 0 -0.98389798402786255 0.1787308007478714
vn 0 -0.98389798402786255 0.1787308007478714
vn 0 -0.99258273839950562 0.12157106399536133
vn 0 -0.99258273839950562 0.12157106399536133
vn 0 -0.99258273839950562 0.12157106399536133
vn 0 -0.99258273839950562 0.12157106399536133
vn 0 -0.99934011697769165 0.036323092877864838
vn 0 -0.99934011697769165 0.036323092877864838
vn 0 -0.99934011697769165 0.036323092877864838
vn 0 -0.99934011697769165 0.036323092877864838
vn 0 -1 0.00018149055540561676
vn 0 -1 0.00018149055540561676
vn 0 -1 0.00018149055540561676
vn 0 -1 0.00018149055540561676
f 1/1/1 2/2/2 3/3/3
f 5/5/5 4/4/4 6/6/6 7/7/7
f 9/9/9 8/8/8 10/10/10 11/11/11
f 13/13/13 12/12/12 14/14/14 15/15/15
f 17/17/17 16/16/16 18/18/18 19/19/19
f 21/21/21 20/20/20 22/22/22 23/23/23
f 25/25/25 24/24/24 26/26/26 27/27/27
f 29/29/29 28/28/28 30/30/30 31/31/31
f 33/33/33 32/32/32 34/34/34 35/35/35
f 37/37/37 36/36/36 38/38/38 39/39/39
f 41/41/41 40/40/40 42/42/42 43/43/43
f 45/45/45 44/44/44 46/46/46 47/47/47
f 49/49/49 48/48/48 50/50/50 51/51/51
f 52/52/52 54/54/54 53/53/53
f 56/56/56 58/58/58 57/57/57 55/55/55
f 60/60/60 62/62/62 61/61/61 59/59/59
f 64/64/64 66/66/66 65/65/65 63/63/63
f 68/68/68 70/70/70 69/69/69 67/67/67
f 72/72/72 74/74/74 73/73/73 71/71/71
f 76/76/76 78/78/78 77/77/77 75/75/75
f 80/80/80 82/82/82 81/81/81 79/79/79
f 84/84/84 86/86/86 85/85/85 83/83/83
f 88/88/88 90/90/90 89/89/89 87/87/87
f 92/92/92 94/94/94 93/93/93 91/91/91
f 96/96/96 98/98/98 97/97/97 95/95/95
f 100/100/100 102/102/102 101/101/101 99/99/99
