# Rhino

mtllib mesh1B_001.mtl
g Layer_01
o object_1
usemtl loafershoes
v -0.73217266999999997 2.0628698000000001 2.0128517000000001
v -0.73217266999999997 0.67024989999999995 2.0128517000000001
v 0.66782750000000002 0.67024989999999995 2.0128517000000001
v -0.73217266999999997 0.67024989999999995 2.0128517000000001
v 0.66782750000000002 0.67024989999999995 2.0128517000000001
v -0.73217266999999997 0.56665339999999997 1.9890151
v 0.66782750000000002 0.56665339999999997 1.9890151
v -0.73217266999999997 0.56665339999999997 1.9890151
v 0.66782750000000002 0.56665339999999997 1.9890151
v -0.73217266999999997 0.47296008 1.9508443
v 0.66782750000000002 0.47296008 1.9508443
v -0.73217266999999997 0.47296008 1.9508443
v 0.66782750000000002 0.47296008 1.9508443
v -0.73217266999999997 0.31060729999999998 1.8336243999999999
v 0.66782750000000002 0.31060729999999998 1.8336243999999999
v -0.73217266999999997 0.31060729999999998 1.8336243999999999
v 0.66782750000000002 0.31060729999999998 1.8336243999999999
v -0.73217266999999997 0.24090664000000001 1.7551045000000001
v 0.66782750000000002 0.24090664000000001 1.7551045000000001
v -0.73217266999999997 0.24090664000000001 1.7551045000000001
v 0.66782750000000002 0.24090664000000001 1.7551045000000001
v -0.73217266999999997 0.179123 1.6639028
v 0.66782750000000002 0.179123 1.6639028
v -0.73217266999999997 0.179123 1.6639028
v 0.66782750000000002 0.179123 1.6639028
v -0.73217266999999997 0.1257346 1.5608563
v 0.66782750000000002 0.1257346 1.5608563
v -0.73217266999999997 0.1257346 1.5608563
v 0.66782750000000002 0.1257346 1.5608563
v -0.73217266999999997 0.081232614999999994 1.4471111000000001
v 0.66782750000000002 0.081232614999999994 1.4471111000000001
v -0.73217266999999997 0.081232614999999994 1.4471111000000001
v 0.66782750000000002 0.081232614999999994 1.4471111000000001
v -0.73217266999999997 0.04612277 1.3240008000000001
v 0.66782750000000002 0.04612277 1.3240008000000001
v -0.73217266999999997 0.04612277 1.3240008000000001
v 0.66782750000000002 0.04612277 1.3240008000000001
v -0.73217266999999997 0.022260955999999998 1.1926436
v 0.66782724999999998 0.022260955999999998 1.1926436
v -0.73217266999999997 0.022260955999999998 1.1926436
v 0.66782724999999998 0.022260955999999998 1.1926436
v -0.73217266999999997 0.0054372450000000003 1.0552835
v 0.66782750000000002 0.0054372450000000003 1.0552835
v -0.73217266999999997 0.0054372450000000003 1.0552835
v 0.66782750000000002 0.0054372450000000003 1.0552835
v -0.73217266999999997 0.00016533246 0.91024020000000005
v 0.66782750000000002 0.00016533246 0.91024020000000005
v -0.73217266999999997 0.00016533246 0.91024020000000005
v 0.66782750000000002 0.00016533246 0.91024020000000005
v -0.73217266999999997 0 0
v 0.66782750000000002 0 0
v 0.66782750000000002 0.67024989999999995 2.0128517000000001
v -0.73217266999999997 2.0628698000000001 2.0128517000000001
v 0.66782750000000002 2.0628698000000001 2.0128517000000001
v -0.73217266999999997 2.0628698000000001 2.0128517000000001
v 0.66782750000000002 2.0628698000000001 2.0128517000000001
v -0.73217266999999997 2.1664664999999999 1.9890151
v 0.66782750000000002 2.1664664999999999 1.9890151
v -0.73217266999999997 2.1664664999999999 1.9890151
v 0.66782750000000002 2.1664664999999999 1.9890151
v -0.73217266999999997 2.2601597 1.9508443
v 0.66782750000000002 2.2601597 1.9508443
v -0.73217266999999997 2.2601597 1.9508443
v 0.66782750000000002 2.2601597 1.9508443
v -0.73217266999999997 2.4225124999999998 1.8336243999999999
v 0.66782750000000002 2.4225124999999998 1.8336243999999999
v -0.73217266999999997 2.4225124999999998 1.8336243999999999
v 0.66782750000000002 2.4225124999999998 1.8336243999999999
v -0.73217266999999997 2.4922132000000001 1.7551045000000001
v 0.66782750000000002 2.4922132000000001 1.7551045000000001
v -0.73217266999999997 2.4922132000000001 1.7551045000000001
v 0.66782750000000002 2.4922132000000001 1.7551045000000001
v -0.73217266999999997 2.5539968000000002 1.6639028
v 0.66782750000000002 2.5539968000000002 1.6639028
v -0.73217266999999997 2.5539968000000002 1.6639028
v 0.66782750000000002 2.5539968000000002 1.6639028
v -0.73217266999999997 2.6073852 1.5608563
v 0.66782750000000002 2.6073852 1.5608563
v -0.73217266999999997 2.6073852 1.5608563
v 0.66782750000000002 2.6073852 1.5608563
v -0.73217266999999997 2.6518872 1.4471111000000001
v 0.66782750000000002 2.6518872 1.4471111000000001
v -0.73217266999999997 2.6518872 1.4471111000000001
v 0.66782750000000002 2.6518872 1.4471111000000001
v -0.73217266999999997 2.6869969999999999 1.3240008000000001
v 0.66782750000000002 2.6869969999999999 1.3240008000000001
v -0.73217266999999997 2.6869969999999999 1.3240008000000001
v 0.66782750000000002 2.6869969999999999 1.3240008000000001
v -0.73217266999999997 2.7108588 1.1926436
v 0.66782724999999998 2.7108588 1.1926436
v -0.73217266999999997 2.7108588 1.1926436
v 0.66782724999999998 2.7108588 1.1926436
v -0.73217266999999997 2.7276826000000001 1.0552835
v 0.66782750000000002 2.7276826000000001 1.0552835
v -0.73217266999999997 2.7276826000000001 1.0552835
v 0.66782750000000002 2.7276826000000001 1.0552835
v -0.73217266999999997 2.7329545 0.91024020000000005
v 0.66782750000000002 2.7329545 0.91024020000000005
v -0.73217266999999997 2.7329545 0.91024020000000005
v 0.66782750000000002 2.7329545 0.91024020000000005
v -0.73217266999999997 2.7331197 0
v 0.66782750000000002 2.7331197 0
vt 0.38575661182403564 0.39327239990234375
vt 0.61887139081954956 0.39327248930931091
vt 0.61887139081954956 0.62762266397476196
vt 0.61887139081954956 0.39327248930931091
vt 0.61887139081954956 0.62762266397476196
vt 0.63666582107543945 0.39327239990234375
vt 0.63666582107543945 0.62762272357940674
vt 0.63666582107543945 0.39327239990234375
vt 0.63666582107543945 0.62762272357940674
vt 0.65360110998153687 0.39327248930931091
vt 0.65360110998153687 0.62762266397476196
vt 0.65360110998153687 0.39327248930931091
vt 0.65360110998153687 0.62762266397476196
vt 0.68712097406387329 0.39327254891395569
vt 0.68712103366851807 0.62762266397476196
vt 0.68712097406387329 0.39327254891395569
vt 0.68712103366851807 0.62762266397476196
vt 0.70469611883163452 0.39327248930931091
vt 0.70469611883163452 0.62762266397476196
vt 0.70469611883163452 0.39327248930931091
vt 0.70469611883163452 0.62762266397476196
vt 0.72313594818115234 0.39327248930931091
vt 0.72313600778579712 0.62762272357940674
vt 0.72313594818115234 0.39327248930931091
vt 0.72313600778579712 0.62762272357940674
vt 0.74256289005279541 0.39327248930931091
vt 0.74256289005279541 0.62762272357940674
vt 0.74256289005279541 0.39327248930931091
vt 0.74256289005279541 0.62762272357940674
vt 0.76300841569900513 0.39327248930931091
vt 0.76300835609436035 0.62762266397476196
vt 0.76300841569900513 0.39327248930931091
vt 0.76300835609436035 0.62762266397476196
vt 0.78443789482116699 0.39327239990234375
vt 0.78443789482116699 0.62762272357940674
vt 0.78443783521652222 0.39327237010002136
vt 0.78443783521652222 0.62762272357940674
vt 0.80678600072860718 0.39327245950698853
vt 0.80678582191467285 0.62762266397476196
vt 0.80678606033325195 0.39327248930931091
vt 0.80678588151931763 0.62762266397476196
vt 0.82995092868804932 0.39327239990234375
vt 0.82995098829269409 0.62762272357940674
vt 0.82995092868804932 0.39327239990234375
vt 0.82995098829269409 0.62762272357940674
vt 0.85424625873565674 0.39327254891395569
vt 0.85424625873565674 0.62762266397476196
vt 0.85424625873565674 0.39327254891395569
vt 0.85424625873565674 0.62762266397476196
vt 1.006614089012146 0.39327248930931091
vt 1.006614089012146 0.62762266397476196
vt 0.61887139081954956 0.62762266397476196
vt 0.38575661182403564 0.39327239990234375
vt 0.38575658202171326 0.62762266397476196
vt 0.38575661182403564 0.39327239990234375
vt 0.38575658202171326 0.62762266397476196
vt 0.3679620623588562 0.39327248930931091
vt 0.36796212196350098 0.62762266397476196
vt 0.3679620623588562 0.39327248930931091
vt 0.36796212196350098 0.62762266397476196
vt 0.35102683305740356 0.39327239990234375
vt 0.35102692246437073 0.62762272357940674
vt 0.35102683305740356 0.39327239990234375
vt 0.35102692246437073 0.62762272357940674
vt 0.31750690937042236 0.39327239990234375
vt 0.31750690937042236 0.62762266397476196
vt 0.31750690937042236 0.39327239990234375
vt 0.31750690937042236 0.62762266397476196
vt 0.29993173480033875 0.39327248930931091
vt 0.29993176460266113 0.62762272357940674
vt 0.29993173480033875 0.39327248930931091
vt 0.29993176460266113 0.62762272357940674
vt 0.2814919650554657 0.39327239990234375
vt 0.28149193525314331 0.62762278318405151
vt 0.2814919650554657 0.39327239990234375
vt 0.28149193525314331 0.62762278318405151
vt 0.26206511259078979 0.39327248930931091
vt 0.26206511259078979 0.62762266397476196
vt 0.26206511259078979 0.39327248930931091
vt 0.26206511259078979 0.62762266397476196
vt 0.2416195273399353 0.39327248930931091
vt 0.2416195273399353 0.62762266397476196
vt 0.2416195273399353 0.39327248930931091
vt 0.2416195273399353 0.62762266397476196
vt 0.22019007802009583 0.39327248930931091
vt 0.22019007802009583 0.62762272357940674
vt 0.22019006311893463 0.39327248930931091
vt 0.22019006311893463 0.62762272357940674
vt 0.19784194231033325 0.39327239990234375
vt 0.19784189760684967 0.62762260437011719
vt 0.19784195721149445 0.39327239990234375
vt 0.19784191250801086 0.62762260437011719
vt 0.17467696964740753 0.39327239990234375
vt 0.1746770441532135 0.62762260437011719
vt 0.17467696964740753 0.39327239990234375
vt 0.1746770441532135 0.62762260437011719
vt 0.15038172900676727 0.39327239990234375
vt 0.15038172900676727 0.62762260437011719
vt 0.15038172900676727 0.39327239990234375
vt 0.15038172900676727 0.62762260437011719
vt -0.0019861594773828983 0.39327248930931091
vt -0.0019861762411892414 0.62762272357940674
vn 0 0 -1
vn 0 0 -1
vn 0 0 -1
vn 0 0.22423180937767029 -0.97453582286834717
vn 0 0.22423180937767029 -0.97453582286834717
vn 0 0.22423180937767029 -0.97453582286834717
vn 0 0.22423180937767029 -0.97453582286834717
vn 0 0.37729233503341675 -0.92609423398971558
vn 0 0.37729233503341675 -0.92609423398971558
vn 0 0.37729233503341675 -0.92609423398971558
vn 0 0.37729233503341675 -0.92609423398971558
vn 0 0.58537614345550537 -0.81076180934906006
vn 0 0.58537614345550537 -0.81076180934906006
vn 0 0.58537614345550537 -0.81076180934906006
vn 0 0.58537614345550537 -0.81076180934906006
vn 0 0.74785715341567993 -0.66385972499847412
vn 0 0.74785715341567993 -0.66385972499847412
vn 0 0.74785715341567993 -0.66385972499847412
vn 0 0.74785715341567993 -0.66385972499847412
vn 0 0.8279111385345459 -0.56085926294326782
vn 0 0.8279111385345459 -0.56085926294326782
vn 0 0.8279111385345459 -0.56085926294326782
vn 0 0.8279111385345459 -0.56085926294326782
vn 0 0.88790619373321533 -0.46002459526062012
vn 0 0.88790619373321533 -0.46002459526062012
vn 0 0.88790619373321533 -0.46002459526062012
vn 0 0.88790619373321533 -0.46002459526062012
vn 0 0.93126225471496582 -0.36434954404830933
vn 0 0.93126225471496582 -0.36434954404830933
vn 0 0.93126225471496582 -0.36434954404830933
vn 0 0.93126225471496582 -0.36434954404830933
vn 0 0.96165698766708374 -0.27425509691238403
vn 0 0.96165698766708374 -0.27425509691238403
vn 0 0.96165698766708374 -0.27425509691238403
vn 0 0.96165698766708374 -0.27425509691238403
vn 0 0.98389798402786255 -0.17873091995716095
vn 0 0.98389798402786255 -0.17873091995716095
vn 0 0.98389798402786255 -0.17873091995716095
vn 0 0.98389798402786255 -0.17873091995716095
vn 0 0.99258279800415039 -0.12157043814659119
vn 0 0.99258279800415039 -0.12157043814659119
vn 0 0.99258279800415039 -0.12157043814659119
vn 0 0.99258279800415039 -0.12157043814659119
vn 0 0.99934011697769165 -0.03632315993309021
vn 0 0.99934011697769165 -0.03632315993309021
vn 0 0.99934011697769165 -0.03632315993309021
vn 0 0.99934011697769165 -0.03632315993309021
vn 0 1 -0.00018163607455790043
vn 0 1 -0.00018163607455790043
vn 0 1 -0.00018163607455790043
vn 0 1 -0.00018163607455790043
vn 0 0 -1
vn 0 0 -1
vn 0 0 -1
vn 0 -0.22423180937767029 -0.97453582286834717
vn 0 -0.22423180937767029 -0.97453582286834717
vn 0 -0.22423180937767029 -0.97453582286834717
vn 0 -0.22423180937767029 -0.97453582286834717
vn 0 -0.37729233503341675 -0.92609423398971558
vn 0 -0.37729233503341675 -0.92609423398971558
vn 0 -0.37729233503341675 -0.92609423398971558
vn 0 -0.37729233503341675 -0.92609423398971558
vn 0 -0.58537614345550537 -0.81076180934906006
vn 0 -0.58537614345550537 -0.81076180934906006
vn 0 -0.58537614345550537 -0.81076180934906006
vn 0 -0.58537614345550537 -0.81076180934906006
vn 0 -0.74785715341567993 -0.66385972499847412
vn 0 -0.74785715341567993 -0.66385972499847412
vn 0 -0.74785715341567993 -0.66385972499847412
vn 0 -0.74785715341567993 -0.66385972499847412
vn 0 -0.8279111385345459 -0.56085926294326782
vn 0 -0.8279111385345459 -0.56085926294326782
vn 0 -0.8279111385345459 -0.56085926294326782
vn 0 -0.8279111385345459 -0.56085926294326782
vn 0 -0.88790619373321533 -0.46002459526062012
vn 0 -0.88790619373321533 -0.46002459526062012
vn 0 -0.88790619373321533 -0.46002459526062012
vn 0 -0.88790619373321533 -0.46002459526062012
vn 0 -0.93126225471496582 -0.36434954404830933
vn 0 -0.93126225471496582 -0.36434954404830933
vn 0 -0.93126225471496582 -0.36434954404830933
vn 0 -0.93126225471496582 -0.36434954404830933
vn 0 -0.96165698766708374 -0.27425509691238403
vn 0 -0.96165698766708374 -0.27425509691238403
vn 0 -0.96165698766708374 -0.27425509691238403
vn 0 -0.96165698766708374 -0.27425509691238403
vn 0 -0.98389798402786255 -0.17873091995716095
vn 0 -0.98389798402786255 -0.17873091995716095
vn 0 -0.98389798402786255 -0.17873091995716095
vn 0 -0.98389798402786255 -0.17873091995716095
vn 0 -0.99258279800415039 -0.12157043814659119
vn 0 -0.99258279800415039 -0.12157043814659119
vn 0 -0.99258279800415039 -0.12157043814659119
vn 0 -0.99258279800415039 -0.12157043814659119
vn 0 -0.99934011697769165 -0.03632315993309021
vn 0 -0.99934011697769165 -0.03632315993309021
vn 0 -0.99934011697769165 -0.03632315993309021
vn 0 -0.99934011697769165 -0.03632315993309021
vn 0 -1 -0.00018163607455790043
vn 0 -1 -0.00018163607455790043
vn 0 -1 -0.00018163607455790043
vn 0 -1 -0.00018163607455790043
f 1/1/1 3/3/3 2/2/2
f 5/5/5 7/7/7 6/6/6 4/4/4
f 9/9/9 11/11/11 10/10/10 8/8/8
f 13/13/13 15/15/15 14/14/14 12/12/12
f 17/17/17 19/19/19 18/18/18 16/16/16
f 21/21/21 23/23/23 22/22/22 20/20/20
f 25/25/25 27/27/27 26/26/26 24/24/24
f 29/29/29 31/31/31 30/30/30 28/28/28
f 33/33/33 35/35/35 34/34/34 32/32/32
f 37/37/37 39/39/39 38/38/38 36/36/36
f 41/41/41 43/43/43 42/42/42 40/40/40
f 45/45/45 47/47/47 46/46/46 44/44/44
f 49/49/49 51/51/51 50/50/50 48/48/48
f 52/52/52 53/53/53 54/54/54
f 56/56/56 55/55/55 57/57/57 58/58/58
f 60/60/60 59/59/59 61/61/61 62/62/62
f 64/64/64 63/63/63 65/65/65 66/66/66
f 68/68/68 67/67/67 69/69/69 70/70/70
f 72/72/72 71/71/71 73/73/73 74/74/74
f 76/76/76 75/75/75 77/77/77 78/78/78
f 80/80/80 79/79/79 81/81/81 82/82/82
f 84/84/84 83/83/83 85/85/85 86/86/86
f 88/88/88 87/87/87 89/89/89 90/90/90
f 92/92/92 91/91/91 93/93/93 94/94/94
f 96/96/96 95/95/95 97/97/97 98/98/98
f 100/100/100 99/99/99 101/101/101 102/102/102
